{"glyphs":{":":{"x_min":0,"x_max":220,"ha":220,"o":"m 137 356 l 138 360 q 149 380 164 393 q 179 405 203 414 l 207 414 q 227 406 237 393 q 247 381 250 360 l 249 356 q 236 332 221 320 q 206 307 183 302 l 179 302 q 157 307 147 319 q 138 331 137 356 z m 81 93 l 82 97 q 93 117 108 129 q 123 142 147 151 l 151 151 q 171 143 181 130 q 191 118 193 97 l 193 93 q 180 69 165 57 q 150 44 127 39 l 124 39 q 101 44 91 56 q 82 68 81 93 z"},"$":{"x_min":0,"x_max":440,"ha":440,"o":"m 204 28 l 253 257 q 224 271 203 283 q 182 296 163 316 q 143 336 136 363 q 130 389 137 422 q 146 463 176 497 q 206 531 243 549 q 281 568 319 571 l 332 627 l 365 627 l 354 571 q 379 570 400 566 q 420 562 432 556 q 444 551 453 545 q 461 540 464 537 l 467 533 l 469 530 q 448 490 434 447 l 425 446 q 407 521 346 534 l 301 327 l 324 318 q 334 313 346 307 q 358 301 367 295 q 377 289 387 280 q 396 272 404 263 q 411 254 417 243 q 422 232 425 220 q 428 208 428 193 q 428 178 424 162 q 413 105 355 57 q 298 9 231 -5 l 215 -81 l 181 -81 l 196 -10 l 189 -10 q 159 -10 133 -6 q 107 -1 91 4 q 75 10 63 16 q 51 21 46 25 l 41 30 l 39 33 q 62 79 75 118 l 83 119 q 94 78 126 53 q 158 28 204 28 z m 271 341 l 312 537 q 272 535 243 510 q 214 484 206 445 q 191 380 271 341 z m 284 244 l 239 32 q 277 40 306 65 q 335 90 344 131 q 346 148 347 162 q 348 175 344 186 q 339 198 335 206 q 330 213 321 221 q 312 229 304 233 q 295 238 284 244 z"},"?":{"x_min":0,"x_max":405,"ha":405,"o":"m 327 619 q 258 619 184 525 l 171 526 l 169 593 l 173 597 q 205 620 251 639 q 297 659 344 659 q 420 659 456 618 q 492 577 477 508 q 474 491 466 476 q 459 460 452 448 q 445 437 432 424 q 418 410 410 403 q 402 396 385 383 q 368 371 361 367 l 337 351 q 289 320 275 301 q 250 266 242 228 l 232 184 q 229 174 217 174 q 211 174 208 177 q 205 179 206 184 l 216 230 q 220 251 225 266 q 230 281 240 303 q 251 326 271 348 q 289 370 317 391 q 355 421 375 446 q 394 471 401 504 q 411 553 390 586 q 369 619 327 619 z m 133 44 l 134 48 q 146 68 161 81 q 176 93 200 102 l 204 102 q 224 94 234 81 q 244 69 246 48 l 246 44 q 233 20 218 8 q 202 -4 180 -10 l 176 -10 q 153 -4 144 7 q 134 19 133 44 z"},"<":{"x_min":0,"x_max":487,"ha":487,"o":"m 173 239 l 465 123 l 455 73 l 95 215 l 105 263 l 525 404 l 514 354 z"},"'":{"x_min":0,"x_max":190,"ha":190,"o":"m 169 426 q 177 585 179 594 q 183 612 201 628 q 220 644 241 644 q 259 644 265 634 q 272 625 269 611 q 268 604 250 559 l 214 472 l 197 430 z"},"=":{"x_min":0,"x_max":527,"ha":527,"o":"m 529 318 l 518 269 l 123 269 l 134 318 z m 502 193 l 492 144 l 97 144 l 107 193 z"},"a":{"x_min":0,"x_max":474,"ha":474,"o":"m 353 219 q 364 248 373 289 q 382 331 385 357 l 388 385 q 362 395 326 395 q 283 395 239 352 q 195 308 169 247 q 142 186 142 133 q 142 89 153 69 q 164 48 189 48 q 214 48 266 101 q 317 154 353 219 z m 408 138 q 400 103 400 74 q 400 58 408 50 q 416 42 429 42 q 451 42 477 49 l 479 46 l 479 20 l 453 7 q 443 2 423 -4 q 402 -10 384 -10 q 358 -10 340 3 q 322 16 322 43 q 322 60 329 90 l 342 142 l 340 144 q 318 112 305 93 q 291 75 272 52 q 253 30 238 18 q 222 6 202 -2 q 183 -10 162 -10 q 138 -10 119 -2 q 101 6 90 19 q 79 31 72 49 q 65 66 62 82 q 60 99 60 117 q 60 163 78 210 q 96 258 125 298 q 154 337 189 369 q 224 400 259 418 q 295 436 323 436 q 376 436 403 433 q 414 431 445 434 q 476 436 479 436 z"},"L":{"x_min":0,"x_max":506,"ha":506,"o":"m 231 200 q 207 76 208 54 q 268 54 334 60 q 399 65 437 71 l 473 76 l 474 72 q 469 59 465 39 q 464 34 463 20 q 462 6 461 0 l 458 -3 q 435 0 399 0 l 146 0 q 131 0 118 -1 q 104 -1 99 -2 l 93 -3 l 93 0 q 117 67 146 200 l 198 445 q 224 566 229 645 l 232 648 q 249 645 283 645 q 299 645 312 646 q 325 646 331 647 l 336 648 l 336 645 q 313 584 284 445 z"},"3":{"x_min":0,"x_max":444,"ha":444,"o":"m 208 29 q 230 29 259 41 q 288 52 311 80 q 329 102 341 134 q 354 166 354 202 q 354 245 331 268 q 301 300 245 300 q 217 300 205 298 l 213 342 q 232 339 247 339 q 288 339 316 358 q 346 377 361 409 q 380 450 380 490 q 380 526 362 549 q 344 571 319 571 q 278 571 249 550 q 220 529 195 486 l 181 487 l 172 551 l 176 554 q 202 575 244 593 q 286 610 334 610 q 395 610 429 580 q 464 550 464 503 q 464 443 421 390 q 401 366 377 349 q 352 333 329 327 l 329 322 q 376 317 406 286 q 436 255 436 207 q 436 117 358 51 q 322 21 279 6 q 236 -10 199 -10 q 113 -10 67 38 l 65 41 l 99 116 l 113 117 q 125 71 133 58 q 150 32 194 29 q 201 29 208 29 z"},";":{"x_min":0,"x_max":220,"ha":220,"o":"m 126 356 l 127 360 q 139 380 154 393 q 169 405 193 414 l 197 414 q 217 406 227 393 q 237 381 239 360 l 239 356 q 226 332 211 320 q 196 307 173 302 l 169 302 q 147 307 137 319 q 127 331 126 356 z m 58 44 l 58 48 q 70 68 85 81 q 100 93 124 102 l 128 102 q 156 91 167 67 q 179 42 169 -3 q 159 -53 115 -88 q 72 -124 21 -133 q 13 -124 22 -108 q 60 -99 90 -73 q 121 -47 125 -29 q 126 -20 125 -14 q 125 -9 120 -7 q 115 -4 111 -3 q 107 -3 102 -3 q 77 2 68 11 q 59 20 58 44 z"},"J":{"x_min":0,"x_max":311,"ha":311,"o":"m 159 95 l 227 445 q 252 578 256 645 l 258 648 q 274 645 309 645 q 324 645 337 646 q 351 646 356 647 l 361 648 l 362 645 q 339 577 313 445 l 249 117 q 232 32 214 -6 q 195 -44 145 -96 q 71 -172 -29 -172 q -60 -172 -72 -163 l -72 -160 q -56 -139 -28 -78 l -17 -77 q -4 -112 34 -112 q 53 -112 70 -103 q 86 -94 98 -77 q 110 -60 120 -42 q 129 -23 136 3 q 144 29 149 49 q 153 69 159 95 z"},"V":{"x_min":0,"x_max":601,"ha":601,"o":"m 352 132 q 425 246 503 390 q 581 534 636 648 q 647 645 685 645 q 708 645 721 648 q 641 528 510 308 q 378 87 316 -10 l 288 -10 l 242 225 l 189 492 q 167 604 154 648 q 170 645 213 645 q 251 645 269 648 q 284 434 350 132 z"},"\"":{"x_min":0,"x_max":336,"ha":336,"o":"m 306 427 q 313 586 315 595 q 319 613 338 629 q 356 645 377 645 q 395 645 402 635 q 408 625 405 612 q 404 604 386 560 l 351 473 l 333 431 z m 180 426 q 188 585 189 594 q 193 612 212 628 q 230 644 251 644 q 269 644 275 634 q 282 625 279 611 q 277 604 260 559 l 225 472 l 208 430 z"},"7":{"x_min":0,"x_max":444,"ha":444,"o":"m 432 525 q 375 527 292 525 q 209 523 160 516 q 171 549 174 565 q 174 566 177 607 q 224 600 445 600 q 478 600 508 610 l 522 600 l 472 515 l 424 432 l 384 360 l 345 288 l 312 227 l 278 162 l 249 106 l 218 46 l 189 -9 l 118 -13 l 116 -7 z"},"S":{"x_min":0,"x_max":485,"ha":485,"o":"m 236 33 q 263 33 293 45 q 323 57 351 85 q 378 113 386 151 q 390 170 391 185 q 391 201 389 213 q 386 225 380 235 q 375 245 368 252 q 361 260 351 267 q 340 273 331 278 q 321 283 308 289 q 293 295 282 300 q 271 305 257 312 q 244 319 233 326 q 223 333 211 341 q 199 350 190 358 q 182 367 174 378 q 166 388 161 400 q 156 412 153 425 q 150 438 150 453 q 151 468 154 485 q 164 528 188 562 q 213 597 246 617 q 279 637 315 648 q 350 658 384 658 q 418 658 446 654 q 474 649 489 642 q 504 636 515 629 q 525 622 529 617 l 532 613 l 534 610 q 509 562 493 514 l 483 513 q 471 564 444 591 q 417 618 366 618 q 326 618 286 587 q 247 556 237 512 q 219 427 342 379 q 356 374 368 368 q 380 363 394 356 q 407 349 418 341 q 429 334 440 324 q 451 315 459 304 q 467 294 473 281 q 479 268 483 254 q 486 240 486 222 q 485 205 481 186 q 463 99 385 44 q 308 -10 218 -10 q 184 -10 153 -5 q 123 0 104 6 q 86 13 72 19 q 58 26 52 30 l 46 35 l 45 38 q 74 99 86 136 l 96 137 q 107 90 145 62 q 183 33 236 33 z"},"}":{"x_min":0,"x_max":278,"ha":278,"o":"m 84 -68 l 122 108 q 137 176 155 204 q 174 231 214 247 q 199 254 189 265 q 180 275 175 286 q 171 298 171 316 q 172 335 175 353 q 177 368 184 399 l 218 558 q 230 612 218 648 q 207 684 174 684 l 179 706 q 211 706 232 701 q 253 696 269 685 q 285 674 291 656 q 297 637 297 610 q 296 582 288 543 l 251 373 q 230 272 298 255 l 295 240 q 219 220 198 124 l 159 -60 q 141 -144 102 -177 q 62 -210 -16 -213 l -12 -191 q 24 -181 48 -155 q 71 -130 84 -68 z"},"Z":{"x_min":0,"x_max":604,"ha":604,"o":"m 199 54 q 257 54 353 57 q 391 58 514 62 l 581 65 l 582 62 q 578 50 573 29 q 572 22 569 0 l 566 -3 q 543 0 496 0 l 133 0 l 27 -3 l 25 1 q 33 9 45 22 q 56 35 59 38 l 543 579 q 546 583 547 585 q 547 588 546 589 q 545 591 542 591 q 487 591 433 589 q 378 587 304 584 q 230 582 183 580 l 182 583 q 187 595 191 616 q 192 623 195 645 l 198 648 q 221 645 258 645 l 582 645 q 606 645 652 647 q 697 649 709 651 q 715 651 714 645 q 711 634 677 596 q 674 593 672 591 l 208 72 q 201 64 199 54 z"},"x":{"x_min":0,"x_max":455,"ha":455,"o":"m 229 207 l 106 432 q 122 429 163 429 q 200 429 218 432 q 244 367 294 269 q 400 376 451 432 q 461 429 487 429 q 521 429 533 432 l 316 230 q 358 142 439 -3 q 425 0 389 0 q 347 0 332 -3 q 315 37 251 165 l 97 -3 q 88 0 54 0 q 28 0 18 -3 z"},")":{"x_min":0,"x_max":300,"ha":300,"o":"m 310 252 q 281 118 197 -2 q 112 -123 1 -203 l -18 -185 q 170 -13 227 252 q 282 516 168 691 l 194 708 q 229 671 254 628 q 280 585 293 547 q 307 509 314 467 q 321 425 322 394 q 323 363 321 330 q 318 297 315 282 q 313 267 310 252 z"},"&":{"x_min":0,"x_max":705,"ha":705,"o":"m 322 338 q 240 297 204 255 q 168 213 156 156 q 150 119 154 94 q 158 69 173 54 q 188 40 208 33 q 228 27 253 27 q 278 27 297 32 q 317 38 338 54 q 358 69 372 82 q 385 95 413 125 q 418 130 420 133 q 391 187 359 254 q 327 321 322 338 z m 375 411 q 430 442 465 477 q 500 512 505 539 q 513 573 500 591 q 486 609 456 609 q 445 609 431 604 q 418 599 404 589 q 389 579 377 561 q 365 542 360 519 q 351 474 375 411 z m 473 192 q 540 267 575 323 q 610 379 628 432 q 637 429 666 429 q 699 429 710 432 l 599 288 q 509 172 493 153 l 517 107 q 532 76 549 60 q 567 44 581 44 q 606 44 626 57 q 647 69 668 98 l 682 90 q 655 40 623 15 q 591 -10 563 -10 q 551 -10 544 -9 q 536 -8 524 -5 q 512 -1 503 5 q 494 12 483 25 q 472 39 462 57 l 441 94 q 392 42 345 16 q 298 -10 238 -10 q 196 -10 164 0 q 132 9 108 30 q 84 51 77 85 q 70 118 79 166 q 91 221 145 270 q 198 320 308 375 q 274 453 288 517 q 299 566 349 607 q 399 648 469 648 q 522 648 552 617 q 583 586 573 539 q 564 499 513 454 q 462 409 389 371 l 391 363 q 411 310 473 192 z"},"_":{"x_min":0,"x_max":486,"ha":486,"o":"m 458 -110 l 449 -154 l -28 -154 l -19 -110 z"},"v":{"x_min":0,"x_max":414,"ha":414,"o":"m 176 -3 q 137 292 110 432 q 124 429 167 429 q 200 429 212 432 q 213 418 216 378 l 220 319 q 221 302 224 267 q 227 231 229 208 q 232 186 236 156 q 240 125 245 99 q 271 142 301 198 l 365 324 l 420 432 q 427 429 450 429 q 480 429 489 432 q 314 143 236 -3 q 229 0 211 0 q 186 0 176 -3 z"},"O":{"x_min":0,"x_max":691,"ha":691,"o":"m 460 614 q 431 614 402 604 q 374 595 345 573 q 316 551 292 519 q 269 486 248 437 q 228 388 214 327 q 194 231 210 166 q 226 101 268 67 q 310 34 371 34 q 457 34 520 105 q 583 177 612 310 q 676 614 460 614 z m 719 329 q 687 177 585 83 q 483 -10 342 -10 q 210 -10 144 78 q 77 165 108 310 q 128 407 183 486 q 237 566 316 612 q 395 658 483 658 q 619 658 684 568 q 750 477 719 329 z"},"(":{"x_min":0,"x_max":300,"ha":300,"o":"m 98 252 q 126 386 210 506 q 295 626 406 707 l 425 689 q 237 517 181 252 q 125 -12 239 -187 l 212 -204 q 178 -167 152 -124 q 127 -81 114 -43 q 100 -5 93 37 q 86 79 85 110 q 84 141 87 174 q 89 207 92 222 q 94 237 98 252 z"},"C":{"x_min":0,"x_max":650,"ha":650,"o":"m 495 658 q 529 658 562 654 q 595 649 618 642 q 641 636 658 629 q 676 622 685 617 l 693 613 l 695 610 q 690 599 681 580 q 672 562 669 554 l 661 532 q 656 517 651 499 l 639 498 q 622 558 581 584 q 540 611 471 611 q 445 611 416 602 q 388 593 356 572 q 325 550 297 520 q 270 489 247 441 q 223 393 211 334 q 202 289 201 247 q 200 206 209 168 q 218 130 237 102 q 256 74 290 58 q 324 41 369 41 q 439 41 488 62 q 537 82 602 140 l 624 121 q 496 -10 349 -10 q 304 -10 266 0 q 228 10 200 27 q 173 44 152 69 q 131 93 118 122 q 106 151 100 183 q 94 216 95 250 q 97 284 104 319 q 119 391 159 455 q 199 519 252 563 q 305 607 369 633 q 432 658 495 658 z"},"W":{"x_min":0,"x_max":903,"ha":903,"o":"m 664 137 q 702 196 740 263 q 778 330 819 413 l 878 531 l 935 648 q 946 645 984 645 q 1010 645 1022 648 q 944 530 819 311 q 693 92 628 -10 l 600 -10 q 580 86 537 334 l 318 -10 l 290 -10 l 244 225 l 191 492 q 168 604 156 648 q 172 645 215 645 q 251 645 269 648 q 284 426 351 123 l 353 123 q 394 186 524 405 q 489 600 476 648 q 492 645 535 645 q 576 645 594 648 q 594 645 595 619 q 596 593 598 567 q 599 542 604 494 q 609 446 615 397 q 622 348 634 279 q 646 209 662 137 z"},"A":{"x_min":0,"x_max":633,"ha":633,"o":"m 229 229 q 134 75 97 -3 q 86 0 53 0 q 30 0 18 -3 l 453 658 l 481 658 q 498 577 527 422 l 579 154 q 602 42 614 -3 q 598 0 555 0 q 522 0 504 -3 q 499 86 476 229 q 419 230 359 230 q 287 230 229 229 z m 468 275 q 445 403 419 522 l 417 522 l 259 276 q 269 276 308 275 q 347 274 363 274 q 418 274 468 275 z"},"f":{"x_min":0,"x_max":318,"ha":318,"o":"m 147 236 l 179 385 l 109 385 q 104 385 105 391 l 109 409 q 110 417 117 423 q 124 429 136 429 l 188 429 l 199 469 q 213 524 230 553 q 249 583 286 622 q 321 659 365 679 q 409 698 457 698 q 469 698 484 693 q 499 688 505 684 l 506 681 q 489 660 462 604 l 451 603 q 446 618 430 628 q 414 638 393 638 q 352 638 325 609 q 299 580 290 535 q 288 527 282 496 q 277 464 273 445 l 270 429 l 382 429 q 390 429 389 423 l 384 398 q 382 392 374 388 q 366 385 358 385 l 261 385 l 190 67 q 176 1 147 -59 q 118 -119 87 -155 q 22 -231 -63 -231 q -75 -231 -89 -226 q -104 -221 -109 -217 l -109 -214 q -91 -189 -69 -137 l -59 -136 q -54 -152 -40 -163 q -27 -174 -8 -174 q 21 -174 42 -146 q 62 -119 80 -68 q 88 -44 99 3 q 109 49 124 124 z"},"Q":{"x_min":0,"x_max":701,"ha":701,"o":"m 460 614 q 431 614 402 604 q 374 595 345 573 q 316 551 292 519 q 269 486 248 437 q 228 388 214 327 q 194 231 210 166 q 226 101 268 67 q 310 34 371 34 q 457 34 520 105 q 583 177 612 310 q 676 614 460 614 z m 541 49 q 545 47 592 15 q 639 -17 678 -39 q 718 -60 764 -77 l 762 -83 q 688 -118 656 -140 q 613 -112 566 -70 q 519 -28 457 8 q 402 -10 342 -10 q 210 -10 144 78 q 77 165 108 310 q 128 407 183 486 q 237 566 316 612 q 395 658 483 658 q 619 658 684 568 q 750 477 719 329 q 699 238 653 166 q 607 94 541 49 z"},"w":{"x_min":0,"x_max":664,"ha":664,"o":"m 178 -4 q 145 254 110 431 q 124 428 166 428 q 199 428 211 431 q 216 353 219 312 q 223 272 230 208 q 237 143 247 89 l 252 89 q 296 159 374 304 q 368 363 362 432 q 376 429 416 429 q 450 429 462 432 q 458 242 478 90 l 485 90 q 577 244 669 432 q 676 429 699 429 q 729 429 738 432 l 478 -3 q 471 0 446 0 q 416 0 406 -3 q 391 130 380 233 q 340 164 250 -4 q 243 -1 219 -1 q 188 -1 178 -4 z"},"-":{"x_min":0,"x_max":333,"ha":333,"o":"m 324 236 l 98 236 q 92 236 89 241 q 85 246 87 253 q 89 265 100 278 q 111 290 120 290 l 349 290 q 355 290 358 285 q 360 279 359 272 q 357 263 345 249 q 333 236 324 236 z"},"E":{"x_min":0,"x_max":522,"ha":522,"o":"m 225 200 q 200 76 202 54 q 261 54 332 57 q 402 60 444 63 l 486 66 l 487 62 q 481 47 478 29 q 477 24 477 21 q 476 17 476 11 q 475 5 474 0 l 471 -3 q 448 0 412 0 l 139 0 q 124 0 110 -1 q 97 -1 92 -2 l 86 -3 l 86 0 q 110 67 139 200 l 190 445 q 218 577 223 645 l 226 648 q 242 645 276 645 l 539 645 q 575 645 600 648 l 601 645 l 598 633 q 596 626 594 622 q 593 617 592 614 q 590 603 589 588 l 586 584 q 450 596 317 596 q 309 581 295 526 q 283 474 276 445 l 259 363 q 358 363 484 373 l 487 370 q 481 356 478 342 q 475 329 475 314 l 471 311 q 375 321 250 321 z"},"s":{"x_min":0,"x_max":366,"ha":366,"o":"m 62 96 l 77 97 q 85 67 116 48 q 146 30 179 30 q 215 30 241 50 q 267 70 267 108 q 267 153 201 194 q 140 232 124 265 q 116 281 116 303 q 116 333 126 356 q 137 380 154 395 q 171 410 194 420 q 216 431 239 435 q 262 439 286 439 q 342 439 393 407 l 394 404 l 366 337 l 353 336 q 347 360 325 380 q 304 399 271 399 q 237 399 215 383 q 193 368 193 337 q 193 302 213 280 q 233 258 271 239 q 346 199 346 130 q 346 69 299 30 q 251 -10 172 -10 q 102 -10 35 17 z"},">":{"x_min":0,"x_max":487,"ha":487,"o":"m 416 236 l 124 352 l 134 402 l 494 260 l 484 212 l 64 71 l 75 121 z"},"l":{"x_min":0,"x_max":261,"ha":261,"o":"m 176 82 q 176 68 180 59 q 184 50 189 46 q 195 42 205 42 q 215 41 225 42 l 249 46 q 258 48 262 49 l 264 46 l 264 20 q 246 9 213 0 q 181 -10 153 -10 q 123 -10 107 9 q 91 27 91 61 q 91 71 111 168 l 176 482 q 207 634 208 676 l 211 679 q 256 683 300 698 q 309 698 307 688 q 283 612 260 500 l 188 158 q 187 152 184 139 l 180 119 q 178 112 177 101 q 176 91 176 82 z"},"8":{"x_min":0,"x_max":444,"ha":444,"o":"m 327 577 q 286 577 262 553 q 239 530 231 491 q 228 475 228 465 q 228 420 277 382 l 303 364 q 333 383 362 417 q 391 450 398 486 q 400 498 400 508 q 400 539 382 558 q 364 577 327 577 z m 469 485 q 456 414 334 340 l 385 297 q 445 246 445 183 q 445 169 442 155 q 436 125 417 97 q 398 68 370 44 q 341 21 300 6 q 259 -9 214 -9 q 146 -9 106 22 q 66 52 66 110 q 66 128 70 146 q 76 176 97 208 q 118 239 152 266 q 208 310 233 327 l 216 341 q 155 391 155 454 q 155 466 158 480 q 170 539 218 574 q 266 610 339 610 q 401 610 436 582 q 471 554 471 509 q 471 496 469 485 z m 223 24 q 336 24 358 134 q 360 148 360 160 q 360 230 299 271 l 260 297 q 227 277 203 254 q 180 232 169 210 q 157 188 153 175 q 148 162 145 146 q 142 129 142 113 q 142 68 166 46 q 190 24 223 24 z"},"\\":{"x_min":0,"x_max":292,"ha":292,"o":"m 208 698 l 280 -48 l 231 -48 l 159 698 z"},"e":{"x_min":0,"x_max":427,"ha":427,"o":"m 369 364 q 369 403 319 403 q 215 403 173 242 q 369 250 369 364 z m 168 208 q 168 206 167 196 q 167 187 166 178 q 166 170 166 166 q 166 103 189 71 q 213 38 249 38 q 285 38 329 67 q 373 96 395 134 l 400 133 q 401 129 403 117 q 404 105 406 96 q 408 87 410 82 q 380 40 327 15 q 274 -10 212 -10 q 151 -10 114 34 q 77 79 77 143 q 77 181 87 222 q 98 263 120 302 q 142 340 172 371 q 203 401 247 420 q 292 439 342 439 q 395 439 419 418 q 444 397 444 362 q 444 352 442 342 q 441 332 434 317 q 428 301 417 288 q 406 275 385 261 q 364 247 336 236 q 308 226 265 218 q 222 210 168 208 z"},"b":{"x_min":0,"x_max":491,"ha":491,"o":"m 174 81 q 187 61 205 47 q 223 34 244 34 q 318 34 369 103 q 419 172 419 273 q 419 324 395 354 q 371 385 333 385 q 280 385 230 343 z m 263 500 l 239 384 q 271 413 301 426 q 330 439 364 439 q 423 439 466 398 q 508 356 508 289 q 508 245 495 203 q 482 162 461 130 q 440 98 413 71 q 386 44 356 27 q 326 9 296 0 q 267 -10 241 -10 q 185 -10 142 35 q 123 6 93 -11 q 75 -11 63 0 q 64 2 69 9 q 73 17 74 19 l 79 28 q 82 35 84 40 q 85 45 88 53 q 90 62 92 71 l 180 482 q 209 624 211 676 l 214 679 q 263 683 307 698 q 315 698 313 688 q 285 604 263 500 z"},"%":{"x_min":0,"x_max":637,"ha":637,"o":"m 450 83 q 442 48 452 32 q 463 17 480 17 q 519 17 556 66 q 593 116 603 164 q 610 198 599 212 q 587 225 571 225 q 536 225 498 177 q 459 130 450 83 z m 401 98 q 414 157 463 206 q 513 256 566 256 q 583 256 596 252 q 609 248 621 238 q 632 228 635 210 q 638 192 633 165 q 628 139 613 109 q 598 79 577 52 q 556 24 527 6 q 498 -12 468 -12 q 439 -12 421 5 q 403 21 400 46 q 396 70 401 98 z m 475 521 q 515 521 562 534 q 609 547 636 575 l 665 559 l 133 -12 l 103 3 l 568 503 q 516 484 457 484 q 439 484 417 490 q 394 497 381 505 q 382 494 379 480 q 375 460 365 437 q 354 414 339 390 q 323 366 304 347 q 285 328 261 315 q 237 303 213 303 q 191 303 175 313 q 159 323 153 339 q 146 354 144 374 q 142 393 146 412 q 159 472 209 521 q 259 571 312 571 q 332 571 349 563 q 367 556 373 546 q 422 521 475 521 z m 195 398 q 188 363 198 347 q 208 332 226 332 q 251 332 279 357 q 306 382 323 415 q 341 449 348 479 q 355 512 344 526 q 333 540 316 540 q 281 540 243 492 q 205 445 195 398 z"},"m":{"x_min":0,"x_max":752,"ha":752,"o":"m 458 180 q 434 65 429 0 l 427 -3 q 409 0 379 0 q 365 0 353 -1 q 341 -1 335 -2 l 330 -3 l 330 0 q 350 53 377 180 l 398 278 q 410 339 400 359 q 391 379 355 379 q 301 379 220 297 l 195 180 q 170 65 166 0 l 163 -3 q 147 0 116 0 q 103 0 90 -1 q 78 -1 72 -2 l 67 -3 l 66 0 q 90 67 114 180 l 125 235 q 149 352 139 413 l 141 416 q 181 420 223 437 q 228 437 230 435 q 231 434 231 427 q 233 395 229 352 l 231 349 q 318 439 394 439 q 478 439 488 362 q 538 405 576 422 q 613 439 654 439 q 686 439 706 430 q 727 422 736 409 q 746 396 748 374 q 750 352 747 331 q 745 311 738 280 l 717 180 q 693 64 689 0 l 687 -3 q 673 0 639 0 q 624 0 611 -1 q 599 -1 594 -2 l 589 -3 l 589 0 q 612 61 637 180 l 661 292 q 672 342 659 361 q 647 381 606 381 q 578 381 554 367 q 530 354 488 317 q 486 300 482 281 q 479 265 470 230 q 461 196 458 180 z m 486 361 l 486 362 q 486 362 485 360 z"},"#":{"x_min":0,"x_max":440,"ha":440,"o":"m 316 231 l 356 341 l 247 341 l 205 231 z m 390 341 l 348 231 l 438 231 l 421 183 l 332 183 l 268 13 l 235 13 l 297 183 l 188 183 l 124 13 l 91 13 l 154 183 l 64 183 l 81 231 l 172 231 l 212 341 l 123 341 l 141 390 l 231 390 l 294 560 l 328 560 l 264 390 l 375 390 l 437 560 l 470 560 l 407 390 l 498 390 l 479 341 z"},",":{"x_min":0,"x_max":220,"ha":220,"o":"m 58 44 l 58 48 q 70 68 85 81 q 100 93 124 102 l 128 102 q 156 91 167 67 q 179 42 169 -3 q 159 -53 115 -88 q 72 -124 21 -133 q 13 -124 22 -108 q 60 -99 90 -73 q 121 -47 125 -29 q 126 -20 125 -14 q 125 -9 120 -7 q 115 -4 111 -3 q 107 -3 102 -3 q 77 2 68 11 q 59 20 58 44 z"},"n":{"x_min":0,"x_max":504,"ha":504,"o":"m 471 180 q 446 62 442 0 l 440 -3 q 422 0 392 0 q 378 0 366 -1 q 354 -1 348 -2 l 343 -3 l 343 0 q 363 55 390 180 l 411 278 q 423 339 413 359 q 404 379 368 379 q 341 379 301 359 q 261 338 220 297 l 195 180 q 170 65 166 0 l 163 -3 q 147 0 116 0 q 103 0 90 -1 q 78 -1 72 -2 l 67 -3 l 66 0 q 90 67 114 180 l 125 235 q 149 352 139 413 l 141 416 q 181 420 223 437 q 228 437 230 435 q 231 434 231 427 q 233 395 229 352 l 231 349 q 265 384 302 405 q 338 427 363 433 q 387 439 407 439 q 528 439 495 281 q 492 265 483 230 q 475 196 471 180 z"},"h":{"x_min":0,"x_max":514,"ha":514,"o":"m 390 180 l 413 285 q 419 316 419 334 q 420 353 413 364 q 406 375 393 378 q 381 382 358 382 q 313 382 223 309 l 195 180 q 171 64 167 0 l 165 -3 q 151 0 117 0 q 102 0 89 -1 q 77 -1 72 -2 l 67 -3 l 67 0 q 90 62 115 180 l 179 481 q 209 625 211 676 l 214 679 q 259 683 303 698 q 312 698 310 688 q 285 603 263 501 l 233 360 q 329 439 416 439 q 525 439 492 284 l 470 180 q 446 64 442 0 l 439 -3 q 426 0 392 0 q 376 0 364 -1 q 352 -1 347 -2 l 342 -3 l 342 0 q 365 61 390 180 z"},"z":{"x_min":0,"x_max":416,"ha":416,"o":"m 146 50 q 201 50 264 53 q 327 56 363 59 l 399 61 l 400 58 q 396 46 392 27 q 391 22 390 14 q 389 6 388 0 l 385 -3 q 363 0 330 0 l 104 0 l 22 -3 l 21 1 q 21 2 49 32 l 357 379 q 307 378 249 376 q 191 373 159 371 l 127 368 l 126 371 q 129 381 134 402 q 135 406 136 409 q 136 413 137 419 q 137 424 138 429 l 141 432 q 163 429 196 429 l 400 429 q 413 429 432 431 q 452 432 466 434 q 481 435 482 435 q 488 435 486 429 q 476 419 447 387 z"},"B":{"x_min":0,"x_max":592,"ha":592,"o":"m 308 559 l 268 371 l 340 371 q 473 371 490 481 q 493 507 493 526 q 492 545 485 559 q 479 572 470 581 q 461 590 448 595 q 436 600 423 602 q 411 604 396 604 q 357 604 339 599 q 321 594 317 588 q 312 581 309 562 q 308 560 308 559 z m 258 327 l 208 88 q 202 62 221 52 q 240 41 292 41 q 333 41 363 47 q 393 54 412 64 q 431 74 443 91 q 456 107 461 125 q 467 142 470 165 q 477 199 473 229 q 469 258 457 280 q 444 302 416 315 q 388 327 346 327 z m 283 645 q 307 645 344 646 q 381 648 397 648 q 436 648 466 643 q 497 638 516 629 q 536 621 550 608 q 563 595 570 583 q 577 570 580 553 q 583 537 582 523 q 582 510 580 493 q 574 448 536 412 q 497 375 449 360 l 451 355 q 589 313 573 184 q 569 153 559 127 q 548 101 527 76 q 506 52 476 35 q 446 18 402 7 q 357 -3 301 -3 q 253 -3 213 -1 q 173 0 146 0 q 130 0 117 -1 q 104 -1 99 -2 l 93 -3 l 93 0 q 117 67 146 200 l 198 445 q 225 573 230 645 l 233 648 q 249 645 283 645 z"},"K":{"x_min":0,"x_max":607,"ha":607,"o":"m 201 445 q 228 573 233 645 l 236 648 q 252 645 286 645 q 302 645 315 646 q 328 646 333 647 l 339 648 l 339 645 q 316 584 287 445 l 265 344 l 267 344 q 281 344 293 353 l 333 383 q 375 417 422 461 l 523 561 q 577 615 613 648 q 625 645 661 645 q 696 645 713 648 q 601 565 374 354 l 374 352 l 594 -3 q 576 0 533 0 q 488 0 470 -3 l 402 117 l 329 249 q 297 304 283 322 q 276 329 263 329 l 262 329 l 234 200 q 207 70 202 0 l 199 -3 q 183 0 149 0 q 133 0 120 -1 q 107 -1 102 -2 l 96 -3 l 96 0 q 119 64 148 200 z"},"R":{"x_min":0,"x_max":579,"ha":579,"o":"m 397 613 q 363 613 345 607 q 326 602 320 594 q 313 585 310 569 l 259 330 l 302 330 q 333 330 357 333 q 381 337 405 346 q 429 356 446 372 q 462 388 476 415 q 490 441 498 478 q 503 503 503 522 q 503 542 499 556 q 496 570 488 581 q 480 591 470 597 q 461 603 448 607 q 436 610 424 612 q 412 613 397 613 z m 250 286 l 231 200 q 204 73 199 0 l 196 -3 q 180 0 146 0 q 130 0 117 -1 q 104 -1 99 -2 l 93 -3 l 93 0 q 117 67 146 200 l 198 445 q 225 573 230 645 l 233 648 q 249 645 283 645 q 299 645 346 648 q 393 652 405 652 q 464 652 503 643 q 542 634 568 604 q 611 554 595 479 q 583 421 546 381 q 509 340 460 318 q 435 306 409 300 l 440 243 l 480 170 l 519 105 q 542 66 561 41 q 580 15 594 0 l 591 -3 q 572 0 540 0 q 495 0 476 -3 l 436 67 q 397 133 376 176 q 340 250 314 288 q 286 286 250 286 z"},"T":{"x_min":0,"x_max":540,"ha":540,"o":"m 322 445 q 346 564 344 586 q 284 586 233 583 q 182 580 161 577 l 139 574 l 138 578 q 146 603 152 645 l 155 648 q 178 645 214 645 l 600 645 q 636 645 661 648 l 662 645 q 649 600 648 578 l 645 574 q 579 586 446 586 q 438 571 426 521 q 414 475 408 445 l 355 200 q 328 72 323 0 l 320 -3 q 304 0 270 0 q 254 0 241 -1 q 228 -1 223 -2 l 217 -3 l 217 0 q 241 67 270 200 z"},"P":{"x_min":0,"x_max":522,"ha":522,"o":"m 311 574 l 255 316 q 272 306 322 306 q 476 306 500 458 q 508 496 505 524 q 501 552 494 570 q 486 588 471 599 q 456 609 439 614 q 422 618 400 618 q 366 618 347 613 q 328 607 321 599 q 314 590 311 574 z m 198 445 q 225 573 230 645 l 233 648 q 249 645 283 645 q 299 645 351 648 q 402 652 415 652 q 453 652 483 645 q 514 638 534 627 q 554 617 568 601 q 583 586 590 570 q 597 555 600 537 q 604 519 604 505 q 604 490 601 476 q 597 449 584 422 q 572 394 548 366 q 524 338 493 317 q 462 296 417 282 q 371 269 319 269 q 276 269 247 279 l 231 200 q 203 54 199 0 l 196 -3 q 180 0 146 0 q 130 0 117 -1 q 104 -1 99 -2 l 93 -3 l 93 0 q 117 67 146 200 z"},"|":{"x_min":0,"x_max":210,"ha":210,"o":"m 81 -232 l 32 -232 l 229 698 l 278 698 z"},"t":{"x_min":0,"x_max":302,"ha":302,"o":"m 179 429 l 188 476 l 197 519 q 201 536 205 553 l 208 556 q 226 558 238 560 q 249 563 264 569 q 278 576 285 578 q 293 578 292 568 q 274 507 257 429 l 365 429 q 369 429 371 427 q 373 426 372 423 l 367 398 q 365 392 357 388 q 348 385 340 385 l 248 385 l 217 242 l 200 165 l 188 112 q 174 45 208 45 q 251 45 280 60 l 287 32 q 260 13 225 1 q 189 -10 157 -10 q 124 -10 109 16 q 95 42 102 79 q 104 96 118 151 q 130 202 136 231 l 170 385 l 106 385 q 102 385 103 389 l 110 425 q 111 429 114 429 z"},"M":{"x_min":0,"x_max":833,"ha":833,"o":"m 284 662 l 310 662 q 319 625 366 437 q 412 249 446 146 l 813 662 l 836 662 l 813 445 q 798 298 789 197 q 779 95 772 -3 q 758 0 723 0 q 689 0 673 -3 q 717 335 729 468 q 603 300 407 0 l 388 0 l 352 143 l 307 318 q 287 395 266 466 l 244 398 l 219 321 l 195 250 l 171 175 l 152 109 q 141 73 134 46 q 126 19 122 -3 q 111 0 89 0 q 62 0 50 -3 q 211 432 284 662 z"},"g":{"x_min":0,"x_max":458,"ha":458,"o":"m 149 -5 q 145 -8 136 -14 l 123 -23 q 119 -26 113 -32 q 107 -37 103 -42 q 74 -77 74 -121 q 74 -141 86 -156 q 97 -171 114 -179 q 131 -187 147 -191 q 164 -195 177 -195 q 304 -195 351 -166 q 375 -151 375 -121 q 375 -106 367 -89 q 359 -71 342 -59 q 292 -26 168 -6 q 165 -5 158 -5 q 152 -5 149 -5 z m 276 138 q 253 138 228 145 q 202 151 192 161 q 144 125 144 99 q 144 69 207 54 l 249 45 q 282 38 295 34 l 333 24 q 356 18 372 11 q 388 4 399 -4 q 422 -20 431 -46 q 441 -71 441 -95 q 441 -166 375 -202 q 338 -222 274 -230 q 210 -238 154 -238 q 114 -238 80 -228 q 46 -218 23 -198 q 1 -177 1 -150 q 1 -90 40 -45 q 59 -23 110 6 q 96 14 88 32 q 79 50 79 70 q 79 103 104 130 q 128 158 165 177 q 146 194 134 223 q 121 252 121 284 q 121 354 173 396 q 225 439 296 439 q 312 439 342 435 q 372 431 380 431 q 409 431 427 443 q 445 455 445 480 q 445 494 434 506 l 435 510 q 454 516 458 518 q 476 527 483 533 l 487 532 q 503 508 503 474 q 503 446 484 427 q 464 408 432 408 l 411 408 l 408 406 q 427 387 440 359 q 453 332 453 304 q 453 252 427 213 q 401 175 361 156 q 322 138 276 138 z m 375 298 q 375 344 352 372 q 329 400 289 400 q 247 400 223 367 q 199 334 199 288 q 199 243 222 210 q 244 177 285 177 q 320 177 347 209 q 375 242 375 298 z"},"y":{"x_min":0,"x_max":486,"ha":486,"o":"m 110 432 q 123 429 161 429 q 197 429 211 432 q 213 411 217 388 q 220 365 222 348 q 225 331 230 303 l 237 263 q 239 250 246 218 l 254 177 l 263 131 q 271 93 271 87 l 273 87 q 368 226 478 432 q 487 429 516 429 q 549 429 560 432 q 500 348 334 96 q 169 -156 127 -237 q 112 -232 80 -232 q 62 -232 43 -237 q 132 -127 202 -19 q 191 48 159 203 q 127 359 110 432 z"},"@":{"x_min":0,"x_max":895,"ha":895,"o":"m 636 316 q 642 344 627 361 q 612 379 584 379 q 567 379 539 369 q 511 359 486 339 q 404 271 380 162 q 361 70 439 70 q 465 70 506 107 q 546 145 582 200 q 626 271 636 316 z m 599 74 q 597 68 601 65 q 604 62 607 62 q 639 62 665 68 q 691 74 716 89 q 740 104 759 128 q 777 152 793 189 q 808 226 818 275 q 832 337 823 386 q 814 435 791 472 q 767 508 732 533 q 698 557 659 569 q 621 581 583 581 q 536 581 488 569 q 441 557 394 530 q 346 502 307 463 q 267 424 236 367 q 206 311 190 241 q 183 207 181 174 q 179 140 182 103 q 186 66 197 34 q 207 1 228 -28 q 248 -58 277 -79 q 306 -100 349 -113 q 393 -125 446 -125 q 565 -125 662 -59 l 670 -77 q 609 -118 553 -138 q 498 -158 420 -158 q 362 -158 311 -145 q 261 -131 223 -107 q 185 -82 157 -47 q 128 -13 115 30 q 101 72 97 121 q 94 170 106 223 q 129 329 203 418 q 277 507 383 559 q 488 611 599 611 q 705 611 780 568 q 856 525 887 450 q 918 375 899 282 q 891 246 875 212 q 859 177 830 143 q 802 109 764 84 q 727 59 673 43 q 620 27 557 27 q 543 27 536 34 q 529 41 529 50 q 528 59 529 68 q 533 84 558 131 l 556 132 q 515 80 473 54 q 431 29 401 29 q 373 29 353 38 q 332 47 322 61 q 312 74 307 92 q 302 110 303 125 q 303 139 306 153 q 317 205 349 253 q 380 302 421 335 q 462 369 508 390 q 554 410 593 410 q 619 410 638 398 q 658 386 661 367 l 671 391 l 727 404 l 741 399 l 626 141 q 601 83 599 74 z"},".":{"x_min":0,"x_max":220,"ha":220,"o":"m 63 44 l 64 48 q 76 68 91 81 q 105 93 130 102 l 134 102 q 154 94 164 81 q 174 69 176 48 l 175 44 q 163 20 147 8 q 132 -4 110 -10 l 106 -10 q 83 -4 74 7 q 64 19 63 44 z"},"p":{"x_min":0,"x_max":506,"ha":506,"o":"m 219 301 l 171 77 q 199 34 245 34 q 331 34 377 112 q 419 185 419 273 q 419 327 397 356 q 375 386 338 386 q 312 386 277 363 q 243 339 219 301 z m 125 235 q 142 314 142 366 q 142 393 138 413 l 140 416 q 180 420 222 437 q 227 437 229 435 q 230 434 230 427 q 230 418 230 405 q 230 383 229 359 l 232 360 q 302 439 374 439 q 435 439 474 393 q 513 346 513 279 q 513 208 479 148 q 446 87 397 46 q 328 -10 242 -10 q 193 -10 158 12 l 148 -32 q 119 -172 116 -232 l 113 -235 q 100 -232 66 -232 q 50 -232 38 -233 q 25 -233 21 -234 l 16 -235 l 16 -232 q 40 -167 68 -32 z"},"X":{"x_min":0,"x_max":571,"ha":571,"o":"m 553 -3 q 536 0 496 0 q 456 0 438 -3 q 388 158 340 283 q 207 130 106 -3 q 96 0 65 0 q 34 0 22 -3 l 321 331 q 272 453 186 648 q 202 645 241 645 q 280 645 299 648 q 318 577 388 404 q 466 491 503 535 q 540 579 592 648 q 602 645 633 645 q 664 645 676 648 l 406 358 z"},"*":{"x_min":0,"x_max":433,"ha":433,"o":"m 318 567 q 302 571 277 571 q 237 571 219 579 q 200 587 204 608 q 207 620 217 629 q 227 638 244 638 q 255 638 266 633 q 276 627 284 619 q 291 612 303 602 q 316 593 329 587 q 331 607 327 637 q 323 667 325 679 q 329 695 340 707 q 351 718 364 718 q 378 718 385 709 q 393 700 389 683 q 386 669 370 635 q 354 600 350 586 q 370 594 390 608 q 411 622 426 630 q 441 638 456 638 q 473 638 479 628 q 485 618 483 608 q 476 571 406 571 q 375 571 351 567 q 358 555 372 543 q 386 532 396 524 q 406 517 412 505 q 418 494 415 480 q 412 467 402 459 q 391 451 380 451 q 362 451 354 467 q 347 483 342 513 q 336 542 331 555 q 321 542 302 511 q 284 480 270 466 q 256 451 239 451 q 226 451 220 459 q 213 467 216 479 q 220 498 236 511 q 251 524 277 539 q 303 553 318 567 z"},"Y":{"x_min":0,"x_max":591,"ha":591,"o":"m 395 286 q 348 55 341 -3 q 326 0 290 0 q 255 0 238 -3 q 258 59 304 275 l 228 469 q 172 606 154 648 q 170 645 210 645 q 250 645 268 648 q 278 611 293 569 l 318 497 l 349 417 l 377 340 q 524 513 618 648 q 629 645 659 645 q 688 645 702 648 l 598 528 l 507 424 l 448 354 q 416 314 395 286 z"},"c":{"x_min":0,"x_max":395,"ha":395,"o":"m 314 399 q 259 399 215 332 q 195 300 180 253 q 166 206 166 159 q 166 103 190 72 q 215 40 256 40 q 312 40 362 82 l 365 82 l 378 61 q 343 23 308 7 q 272 -10 231 -10 q 162 -10 119 35 q 77 79 77 155 q 77 274 159 359 q 195 397 239 418 q 283 439 324 439 q 357 439 388 431 q 418 423 437 411 l 439 408 l 400 326 l 389 325 q 366 399 314 399 z"},"!":{"x_min":0,"x_max":228,"ha":228,"o":"m 253 658 q 275 658 288 639 q 301 620 293 585 q 286 548 261 486 q 236 423 226 392 q 210 345 198 303 l 179 237 q 173 214 171 210 q 166 190 153 190 q 141 190 142 203 q 142 205 152 275 q 162 346 167 392 q 171 427 173 487 q 175 546 183 585 q 191 622 212 640 q 233 658 253 658 z m 66 44 l 67 48 q 79 68 94 81 q 109 93 133 102 l 137 102 q 157 94 167 81 q 177 69 179 48 l 178 44 q 166 20 150 8 q 135 -4 113 -10 l 109 -10 q 86 -4 77 7 q 67 19 66 44 z"},"/":{"x_min":0,"x_max":323,"ha":323,"o":"m 430 646 l 43 -59 l 2 -59 l 389 646 z"},"[":{"x_min":0,"x_max":361,"ha":361,"o":"m 69 -192 l 259 703 l 475 703 l 468 673 q 432 670 408 667 q 385 665 366 658 q 348 652 338 646 q 328 640 319 626 q 311 613 307 599 q 303 585 297 561 l 167 -50 q 162 -76 160 -88 q 159 -102 161 -115 q 164 -128 171 -135 q 178 -142 194 -148 q 210 -154 233 -157 q 255 -160 291 -163 l 284 -192 z"},"6":{"x_min":0,"x_max":444,"ha":444,"o":"m 175 277 q 173 272 167 240 q 157 191 157 151 q 157 115 166 89 q 174 63 188 51 q 202 38 217 32 q 232 27 249 27 q 287 27 318 61 q 348 96 363 173 q 368 195 368 220 q 368 239 364 255 q 360 271 351 286 q 341 301 323 309 q 305 318 280 318 q 221 318 175 277 z m 496 583 q 442 578 398 561 q 354 544 313 509 q 271 473 236 420 q 202 368 182 306 q 203 328 241 343 q 278 358 308 358 q 343 358 369 349 q 396 339 411 325 q 426 311 436 291 q 446 271 449 254 q 452 236 452 216 q 452 194 449 180 q 445 157 435 133 q 425 109 407 83 q 389 57 365 37 q 341 17 307 4 q 272 -9 232 -9 q 211 -9 192 -5 q 172 0 152 11 q 131 22 116 41 q 101 59 91 89 q 81 120 81 159 q 81 199 90 243 q 121 399 245 508 q 304 559 363 583 q 423 606 499 611 z"},"r":{"x_min":0,"x_max":347,"ha":347,"o":"m 234 354 l 236 354 q 265 387 306 413 q 347 439 379 439 q 396 439 419 432 l 422 428 l 386 349 l 378 347 q 371 354 360 357 q 350 360 343 361 q 336 361 323 361 q 287 361 257 338 q 234 319 223 286 l 200 180 q 175 62 171 0 l 168 -3 q 152 0 121 0 q 107 0 95 -1 q 83 -1 77 -2 l 72 -3 l 71 0 q 96 71 119 180 l 130 235 q 154 349 144 413 l 146 416 q 186 420 228 437 q 233 437 235 435 q 236 434 236 427 q 239 396 234 354 z"},"2":{"x_min":0,"x_max":444,"ha":444,"o":"m 308 548 q 260 548 227 521 q 193 492 168 449 l 156 450 l 145 519 q 157 533 172 546 q 187 560 209 575 q 232 591 262 600 q 292 610 322 610 q 392 610 431 571 q 470 531 470 473 q 470 453 467 434 q 464 416 456 397 q 448 378 443 366 q 437 354 423 335 l 402 308 l 379 278 q 369 265 356 252 l 335 228 q 325 217 311 203 l 289 181 l 265 158 l 242 138 l 219 116 l 197 97 q 176 78 176 68 q 176 66 177 65 q 203 67 255 67 q 339 67 432 75 q 429 68 422 36 q 419 25 419 -5 q 306 0 253 0 q 222 0 194 -1 q 166 -1 131 -3 q 96 -4 71 -5 q 66 8 66 24 q 66 37 70 47 l 119 89 l 190 151 q 217 175 259 219 q 300 262 329 301 q 382 372 382 464 q 382 500 358 524 q 334 548 308 548 z"},"{":{"x_min":0,"x_max":278,"ha":278,"o":"m 298 562 l 261 386 q 251 340 240 313 q 229 288 212 273 q 196 258 168 247 q 184 240 194 229 q 203 219 208 208 q 212 196 211 178 q 211 159 208 142 q 206 128 199 95 l 166 -64 q 153 -118 165 -154 q 176 -190 208 -190 l 204 -212 q 172 -211 151 -207 q 130 -202 114 -191 q 99 -180 92 -162 q 86 -143 87 -115 q 87 -88 96 -49 l 132 121 q 144 167 133 198 q 122 229 85 239 l 88 254 q 164 274 185 370 l 224 554 q 242 638 281 671 q 321 705 399 707 l 395 685 q 358 675 335 650 q 312 624 298 562 z"},"9":{"x_min":0,"x_max":444,"ha":444,"o":"m 402 323 q 405 333 410 360 q 420 409 420 449 q 420 485 412 511 q 403 537 389 550 q 375 562 360 568 q 345 573 328 573 q 290 573 259 539 q 229 504 214 427 q 209 405 209 380 q 209 361 213 345 q 217 329 226 314 q 235 299 253 291 q 271 282 297 282 q 356 282 402 323 z m 81 17 q 135 22 179 39 q 223 56 264 91 q 307 127 341 179 q 375 232 395 294 q 374 272 336 257 q 299 242 269 242 q 234 242 208 251 q 181 261 166 275 q 151 290 141 309 q 131 329 128 346 q 125 364 125 384 q 125 406 128 420 q 132 443 142 467 q 152 491 170 517 q 188 543 212 563 q 236 583 271 596 q 305 609 345 609 q 366 609 385 605 q 405 601 426 589 q 446 578 461 560 q 477 542 486 511 q 496 480 496 441 q 496 404 487 357 q 472 282 433 214 q 394 146 332 92 q 273 41 214 17 q 154 -7 78 -11 z"}," ":{"x_min":0,"x_max":250,"ha":250,"o":""},"I":{"x_min":0,"x_max":293,"ha":293,"o":"m 201 445 q 228 573 233 645 l 236 648 q 252 645 286 645 q 302 645 315 646 q 328 646 333 647 l 339 648 l 339 645 q 316 584 287 445 l 234 200 q 207 72 202 0 l 199 -3 q 183 0 149 0 q 133 0 120 -1 q 107 -1 102 -2 l 96 -3 l 96 0 q 119 64 148 200 z"},"H":{"x_min":0,"x_max":690,"ha":690,"o":"m 596 445 q 623 573 628 645 l 631 648 q 647 645 681 645 q 697 645 710 646 q 723 646 729 647 l 734 648 l 734 645 q 711 584 682 445 l 629 200 q 602 72 597 0 l 594 -3 q 578 0 544 0 q 528 0 515 -1 q 502 -1 497 -2 l 491 -3 l 491 0 q 514 64 543 200 l 569 321 l 257 321 l 231 200 q 204 73 199 0 l 196 -3 q 180 0 146 0 q 130 0 117 -1 q 104 -1 99 -2 l 93 -3 l 93 0 q 117 67 146 200 l 198 445 q 225 573 230 645 l 233 648 q 249 645 283 645 q 299 645 312 646 q 325 646 331 647 l 336 648 l 336 645 q 313 584 284 445 l 266 363 l 578 363 z"},"4":{"x_min":0,"x_max":444,"ha":444,"o":"m 303 148 l 105 148 q 77 148 63 153 q 50 157 52 168 q 55 184 72 207 q 121 272 230 404 q 338 536 396 600 l 400 604 q 417 600 432 600 q 440 600 453 602 q 466 604 470 604 q 471 604 471 600 q 452 539 437 452 l 388 198 l 449 198 q 463 198 460 182 q 458 173 447 160 q 435 148 426 148 l 378 148 q 364 75 355 0 q 355 -1 354 -2 q 353 -3 352 -3 q 349 -3 335 -1 q 321 0 313 0 l 267 -3 l 266 0 q 279 41 286 67 q 292 93 303 148 z m 374 512 l 118 198 l 313 198 z"},"~":{"x_min":0,"x_max":449,"ha":449,"o":"m 70 209 q 91 260 136 298 q 181 337 226 337 q 236 337 249 332 q 262 327 270 321 q 278 316 293 305 q 308 294 315 289 q 323 283 336 278 q 349 272 359 272 q 384 272 417 289 q 450 305 472 339 l 488 333 q 469 295 447 270 q 424 244 403 232 q 382 221 368 217 q 354 213 342 213 q 325 213 309 221 q 293 230 274 246 q 234 278 207 278 q 179 278 143 258 q 106 238 83 206 z"},"D":{"x_min":0,"x_max":682,"ha":682,"o":"m 205 82 q 199 66 204 57 q 209 48 229 45 q 250 42 299 42 q 344 42 380 48 q 416 53 452 69 q 487 85 514 112 q 541 138 562 182 q 583 225 596 284 q 604 319 607 351 q 610 382 608 415 q 606 447 598 475 q 590 502 574 526 q 558 551 534 568 q 510 584 474 594 q 438 604 394 604 q 353 604 332 596 q 312 588 307 564 z m 281 645 q 312 645 361 646 q 410 648 441 648 q 498 648 546 630 q 594 613 628 582 q 662 551 684 508 q 707 465 711 415 q 715 364 705 308 q 694 257 674 214 q 655 170 630 139 q 606 107 576 83 q 546 58 515 42 q 484 27 449 17 q 415 6 384 2 q 353 -2 321 -2 q 265 -2 220 -1 q 174 0 144 0 q 128 0 115 -1 q 102 -1 97 -2 l 91 -3 l 91 0 q 115 67 144 200 l 196 445 q 223 573 228 645 l 230 648 q 247 645 281 645 z"},"^":{"x_min":0,"x_max":518,"ha":518,"o":"m 385 593 l 230 346 l 186 346 l 377 650 l 419 650 l 480 346 l 436 346 z"},"0":{"x_min":0,"x_max":444,"ha":444,"o":"m 334 571 q 230 571 175 287 q 160 210 160 149 q 160 29 225 29 q 233 29 244 32 q 254 35 269 44 q 283 53 299 73 q 315 93 328 122 q 345 159 356 201 q 368 243 382 317 q 397 397 397 454 q 397 530 373 555 q 359 571 334 571 z m 216 -10 q 149 -10 116 43 q 83 96 83 184 q 83 236 93 289 q 107 362 134 422 q 161 483 195 524 q 229 564 267 587 q 305 610 341 610 q 396 610 426 575 q 474 519 474 414 q 474 365 463 309 q 450 241 427 187 q 404 131 378 95 q 352 60 322 35 q 292 11 266 0 q 239 -10 216 -10 z"},"F":{"x_min":0,"x_max":477,"ha":477,"o":"m 538 645 q 577 645 602 648 l 603 645 q 595 617 595 614 q 591 600 591 588 l 588 584 q 452 596 319 596 q 311 581 298 527 q 284 473 279 445 l 261 363 q 360 363 486 373 l 489 370 q 483 356 479 342 q 477 329 477 314 l 473 311 q 377 321 252 321 l 227 200 q 199 70 194 0 l 191 -3 q 175 0 141 0 q 125 0 112 -1 q 99 -1 94 -2 l 88 -3 l 88 0 q 112 67 141 200 l 192 445 q 220 577 225 645 l 228 648 q 244 645 278 645 z"},"`":{"x_min":0,"x_max":392,"ha":392,"o":"m 327 699 l 370 573 q 373 561 371 549 q 370 545 365 542 q 359 538 354 538 q 345 538 329 558 l 238 667 l 242 678 q 278 701 312 701 q 319 701 327 699 z"},"k":{"x_min":0,"x_max":462,"ha":462,"o":"m 208 240 q 234 243 250 255 q 281 276 333 328 q 385 380 427 429 q 504 429 522 432 l 523 429 q 491 405 451 369 l 364 289 l 310 238 q 387 101 455 0 l 453 -3 q 441 0 398 0 q 358 0 336 -3 l 308 60 l 286 111 q 278 128 265 152 q 252 175 236 199 q 228 208 202 210 l 195 180 q 171 65 167 0 l 165 -3 q 151 0 117 0 q 102 0 89 -1 q 77 -1 72 -2 l 67 -3 l 67 0 q 90 62 115 180 l 179 481 q 209 625 211 676 l 214 679 q 259 683 303 698 q 312 698 310 688 q 285 604 263 501 z"},"u":{"x_min":0,"x_max":514,"ha":514,"o":"m 361 64 q 276 -10 202 -10 q 168 -10 146 2 q 125 14 116 33 q 108 52 106 77 q 104 101 111 126 l 137 249 q 162 370 165 429 l 168 432 q 181 429 215 429 q 231 429 243 430 q 255 431 260 432 l 265 432 l 265 429 q 243 372 217 249 l 196 150 q 189 117 188 96 q 188 75 195 64 q 202 53 214 49 q 225 45 245 45 q 293 45 372 119 l 400 249 q 425 368 428 429 l 431 432 q 444 429 478 429 q 494 429 506 430 q 519 431 523 432 l 528 432 l 528 429 q 506 372 480 249 l 468 192 q 446 89 444 0 l 441 -3 q 422 0 397 0 q 390 0 362 -3 q 358 -3 356 -2 q 354 -1 354 0 l 363 64 z"},"]":{"x_min":0,"x_max":361,"ha":361,"o":"m 400 703 l 210 -192 l -5 -192 l 1 -162 q 38 -160 61 -157 q 84 -154 103 -148 q 122 -142 132 -135 q 142 -128 150 -115 q 159 -102 163 -88 q 167 -74 172 -50 l 302 561 q 308 587 310 599 q 311 613 309 626 q 306 640 299 646 q 292 652 275 659 q 259 665 237 668 q 215 671 179 674 l 186 703 z"},"U":{"x_min":0,"x_max":651,"ha":651,"o":"m 605 445 q 633 576 638 645 l 641 648 q 651 645 675 645 q 685 645 694 646 q 703 646 707 647 l 711 648 l 711 645 q 689 585 659 445 l 626 295 q 614 238 599 195 q 583 151 557 111 q 532 71 498 46 q 465 20 417 5 q 369 -10 309 -10 q 289 -10 269 -7 q 250 -4 228 3 q 207 10 190 22 q 173 35 158 53 q 143 72 136 98 q 129 124 127 158 q 126 192 136 236 l 181 445 q 208 574 213 645 l 216 648 q 232 645 266 645 q 282 645 295 646 q 308 646 313 647 l 319 648 l 319 645 q 296 581 267 445 l 229 269 q 214 199 215 163 q 218 41 341 41 q 376 41 406 49 q 435 56 456 68 q 477 80 494 99 q 512 118 523 137 q 534 155 543 182 q 553 208 559 229 q 563 246 570 277 z"},"o":{"x_min":0,"x_max":490,"ha":490,"o":"m 146 346 q 183 388 233 414 q 283 439 340 439 q 385 439 418 426 q 451 412 469 388 q 488 365 497 336 q 506 308 506 274 q 506 206 473 140 q 439 73 385 33 q 326 -10 243 -10 q 162 -10 118 37 q 74 84 74 156 q 74 264 146 346 z m 327 398 q 291 398 258 373 q 226 349 205 311 q 184 272 174 228 q 167 194 167 160 q 167 31 261 31 q 317 31 358 83 q 385 117 401 164 q 417 210 417 283 q 417 398 327 398 z"},"N":{"x_min":0,"x_max":650,"ha":650,"o":"m 196 445 q 221 565 228 645 l 230 648 q 248 645 261 645 l 286 647 l 504 203 q 527 156 539 157 q 546 157 551 178 l 598 395 q 636 571 664 645 l 667 648 q 677 645 701 645 q 711 645 720 646 q 729 646 733 647 l 737 648 l 737 645 q 680 533 650 395 l 570 21 q 564 -10 543 -10 q 517 -10 505 14 l 280 455 q 278 458 275 465 q 263 488 260 489 q 257 489 252 463 l 247 439 l 203 230 q 168 69 144 0 l 142 -3 q 131 0 107 0 q 97 0 88 -1 q 79 -1 75 -2 l 71 -3 l 71 0 q 120 94 149 230 z"},"+":{"x_min":0,"x_max":527,"ha":527,"o":"m 344 257 l 516 257 l 505 208 l 333 208 l 296 34 l 245 34 l 282 208 l 110 208 l 121 257 l 292 257 l 330 431 l 380 431 z"},"G":{"x_min":0,"x_max":681,"ha":681,"o":"m 551 117 q 552 123 557 147 q 562 172 562 179 l 567 205 q 571 224 572 233 l 576 257 q 578 271 579 283 q 581 295 582 307 l 584 310 q 600 307 634 307 q 650 307 663 308 q 676 309 682 310 l 687 310 l 688 307 q 664 243 641 137 l 640 131 q 632 96 640 83 l 639 80 q 576 35 511 12 q 447 -10 364 -10 q 321 -10 284 -1 q 247 8 219 25 q 190 42 167 64 q 144 87 129 116 q 115 144 107 177 q 99 209 99 244 q 100 280 107 317 q 130 424 190 502 q 250 581 332 619 q 415 658 511 658 q 545 658 578 654 q 611 649 634 642 q 656 636 674 629 q 692 622 701 617 l 709 613 l 711 610 q 706 599 697 580 q 688 562 686 554 l 677 532 q 672 517 667 499 l 657 498 q 639 559 602 585 q 565 611 497 611 q 395 611 318 539 q 242 466 214 337 q 207 302 206 269 q 205 234 209 200 q 214 167 228 137 q 242 107 264 85 q 285 62 319 49 q 354 36 396 36 q 443 36 478 44 q 513 52 542 74 z"},"q":{"x_min":0,"x_max":488,"ha":488,"o":"m 410 326 q 382 397 325 397 q 257 397 217 335 q 197 304 182 254 q 167 205 167 158 q 167 125 177 100 q 187 75 203 62 q 219 49 236 44 q 254 38 273 38 q 310 38 355 68 z m 334 -32 l 346 23 q 302 -10 238 -10 q 195 -10 162 4 q 129 19 111 43 q 93 67 84 96 q 75 125 75 157 q 75 276 167 366 q 243 439 338 439 q 413 439 454 395 l 475 423 q 490 442 502 442 q 511 442 511 430 q 511 424 510 417 l 414 -32 q 386 -166 382 -232 l 379 -235 q 366 -232 332 -232 q 316 -232 304 -233 q 292 -233 287 -234 l 282 -235 l 282 -232 q 305 -170 334 -32 z"},"d":{"x_min":0,"x_max":494,"ha":494,"o":"m 366 115 l 412 335 q 399 366 381 381 q 363 396 330 396 q 264 396 221 341 q 199 312 181 258 q 163 204 163 152 q 163 98 187 71 q 210 44 251 44 q 294 44 366 115 z m 354 64 q 282 -10 214 -10 q 153 -10 113 35 q 73 80 73 150 q 73 221 104 279 q 134 337 183 377 q 258 439 350 439 q 367 439 391 433 q 416 426 430 417 l 443 482 q 474 626 476 676 l 478 679 q 523 683 567 698 q 576 698 574 688 q 553 620 527 500 l 462 192 q 437 75 437 25 q 437 14 439 0 l 437 -3 q 417 0 393 0 q 387 0 359 -3 q 356 -3 354 -2 q 353 -1 353 0 q 354 38 357 64 z"},"1":{"x_min":0,"x_max":444,"ha":444,"o":"m 348 189 q 324 62 319 0 l 317 -3 q 290 0 271 0 l 227 -3 l 226 0 q 248 68 271 189 l 319 437 q 322 455 324 465 q 325 475 326 488 q 327 501 324 507 q 322 513 316 513 q 306 513 265 506 q 225 500 204 497 l 204 526 q 248 539 324 570 q 401 601 430 610 q 433 610 434 610 q 435 609 436 608 q 437 607 436 605 q 419 555 397 443 z"},"5":{"x_min":0,"x_max":444,"ha":444,"o":"m 191 -10 q 108 -10 57 46 l 54 49 l 90 129 l 104 130 q 106 125 110 113 q 113 101 115 96 q 117 91 120 82 q 124 73 126 68 l 133 58 q 138 50 142 47 l 152 40 q 159 36 166 34 q 172 33 181 31 q 190 30 201 30 q 250 30 288 70 q 325 111 339 179 q 345 210 345 234 q 345 286 322 313 q 299 340 260 340 q 229 340 202 332 q 174 324 135 309 l 129 312 l 217 606 q 281 600 325 600 q 404 600 484 610 l 490 607 l 462 539 q 414 533 360 533 q 304 533 240 542 l 185 365 q 228 380 293 380 q 359 380 395 340 q 431 300 431 238 q 431 217 427 196 q 410 107 343 49 q 276 -10 191 -10 z"}}}
